<svg xmlns="http://www.w3.org/2000/svg" width="360" height="240" viewBox="0 0 360 240"><defs>
 <linearGradient id="bg" x1="0" y1="0" x2="1" y2="1"><stop stop-color="#183b50"/><stop offset=".55" stop-color="#0b2636"/><stop offset="1" stop-color="#061720"/></linearGradient>
 <radialGradient id="halo"><stop stop-color="#5bd8ff" stop-opacity=".28"/><stop offset="1" stop-color="#5bd8ff" stop-opacity="0"/></radialGradient>
 <linearGradient id="metal" x1="0" y1="0" x2="1" y2="1"><stop stop-color="#dbe7ec"/><stop offset=".35" stop-color="#8498a2"/><stop offset=".7" stop-color="#344a54"/><stop offset="1" stop-color="#172b34"/></linearGradient>
 <linearGradient id="black" x1="0" y1="0" x2="1" y2="1"><stop stop-color="#53636b"/><stop offset=".28" stop-color="#171e22"/><stop offset="1" stop-color="#050708"/></linearGradient>
 <linearGradient id="orange" x1="0" y1="0" x2="1" y2="1"><stop stop-color="#ffd064"/><stop offset=".45" stop-color="#f59e0b"/><stop offset="1" stop-color="#9a4d00"/></linearGradient>
 <linearGradient id="blue" x1="0" y1="0" x2="1" y2="1"><stop stop-color="#88e8ff"/><stop offset=".45" stop-color="#1599d5"/><stop offset="1" stop-color="#064e72"/></linearGradient>
 <linearGradient id="green" x1="0" y1="0" x2="1" y2="1"><stop stop-color="#b8ffcf"/><stop offset=".45" stop-color="#27c56f"/><stop offset="1" stop-color="#08743a"/></linearGradient>
 <linearGradient id="red" x1="0" y1="0" x2="1" y2="1"><stop stop-color="#ffb7aa"/><stop offset=".45" stop-color="#ed4f3d"/><stop offset="1" stop-color="#7d1813"/></linearGradient>
 <filter id="shadow" x="-30%" y="-30%" width="160%" height="180%"><feDropShadow dx="0" dy="10" stdDeviation="9" flood-color="#000" flood-opacity=".55"/></filter>
 <filter id="glow"><feGaussianBlur stdDeviation="4" result="b"/><feMerge><feMergeNode in="b"/><feMergeNode in="SourceGraphic"/></feMerge></filter>
</defs>
<rect width="360" height="240" rx="26" fill="url(#bg)"/>
<ellipse cx="180" cy="195" rx="128" ry="23" fill="#000" opacity=".28"/>
<circle cx="180" cy="114" r="112" fill="url(#halo)"/>
<path d="M35 194H325" stroke="#67c9eb" stroke-opacity=".16"/><path d="M55 210H305" stroke="#67c9eb" stroke-opacity=".1"/>
<g filter="url(#shadow)"><rect x="90" y="44" width="180" height="157" rx="14" fill="url(#metal)" stroke="#b9cbd1" stroke-width="3"/><rect x="106" y="60" width="148" height="100" rx="9" fill="#15252c"/><g><circle cx="126" cy="82" r="8" fill="#3ce786" filter="url(#glow)"/><circle cx="159" cy="82" r="8" fill="#f1b632" filter="url(#glow)"/><circle cx="192" cy="82" r="8" fill="#ef4e3e" filter="url(#glow)"/><circle cx="225" cy="82" r="8" fill="#45b9f0" filter="url(#glow)"/><circle cx="126" cy="113" r="8" fill="#3ce786" filter="url(#glow)"/></g><path d="M119 143h119" stroke="#526b75" stroke-width="7"/><g fill="#d8e5e8"><rect x="106" y="201" width="14" height="20"/><rect x="132" y="201" width="14" height="20"/><rect x="158" y="201" width="14" height="20"/><rect x="184" y="201" width="14" height="20"/><rect x="210" y="201" width="14" height="20"/><rect x="236" y="201" width="14" height="20"/></g></g></svg>